<svg width="112" height="178" viewBox="0 0 112 178" fill="none" xmlns="http://www.w3.org/2000/svg">
<path d="M79.3342 74.0002C68.2231 74.0002 58.7786 65.1113 58.7786 53.4447H22.6675V44.5558H61.0009C61.0009 44.0002 61.5564 43.4447 61.5564 43.4447L68.2231 31.2224H22.6675V22.3336H73.7787L86.5564 0.111328H8.77865C4.3342 0.111328 0.445312 4.00022 0.445312 8.44466V177.889H111.556V74.0002H79.3342ZM56.0009 158.445C47.6675 158.445 40.4453 151.778 40.4453 142.889C40.4453 134 47.6675 127.889 56.0009 127.889C64.3342 127.889 71.5564 134.556 71.5564 143.445C71.5564 152.334 64.3342 158.445 56.0009 158.445ZM83.7786 114.556H28.2231V105.667H83.7786V114.556Z" fill="#092C4C"/>
</svg>
